<mxfile host="app.diagrams.net" agent="Mozilla/5.0 (Windows NT 10.0; Win64; x64) AppleWebKit/537.36 (KHTML, like Gecko) Chrome/136.0.0.0 Safari/537.36 Edg/136.0.0.0" version="26.1.3">
  <diagram id="C5RBs43oDa-KdzZeNtuy" name="Page-1">
    <mxGraphModel dx="834" dy="452" grid="1" gridSize="10" guides="1" tooltips="1" connect="1" arrows="1" fold="1" page="1" pageScale="1" pageWidth="827" pageHeight="1169" math="0" shadow="0">
      <root>
        <mxCell id="WIyWlLk6GJQsqaUBKTNV-0" />
        <mxCell id="WIyWlLk6GJQsqaUBKTNV-1" parent="WIyWlLk6GJQsqaUBKTNV-0" />
        <mxCell id="0WmDlM7VI-9q1DeEQzwd-1" value="" style="shape=folder;fontStyle=1;spacingTop=10;tabWidth=70;tabHeight=20;tabPosition=left;html=1;whiteSpace=wrap;" vertex="1" parent="WIyWlLk6GJQsqaUBKTNV-1">
          <mxGeometry x="50" y="100" width="380" height="280" as="geometry" />
        </mxCell>
        <mxCell id="0WmDlM7VI-9q1DeEQzwd-2" value="" style="shape=folder;fontStyle=1;spacingTop=10;tabWidth=70;tabHeight=20;tabPosition=left;html=1;whiteSpace=wrap;" vertex="1" parent="WIyWlLk6GJQsqaUBKTNV-1">
          <mxGeometry x="60" y="410" width="690" height="420" as="geometry" />
        </mxCell>
        <mxCell id="0WmDlM7VI-9q1DeEQzwd-3" value="LÃ³gica" style="text;align=center;fontStyle=1;verticalAlign=middle;spacingLeft=3;spacingRight=3;strokeColor=none;rotatable=0;points=[[0,0.5],[1,0.5]];portConstraint=eastwest;html=1;" vertex="1" parent="WIyWlLk6GJQsqaUBKTNV-1">
          <mxGeometry x="40" y="100" width="80" height="26" as="geometry" />
        </mxCell>
        <mxCell id="0WmDlM7VI-9q1DeEQzwd-4" value="Interfaz" style="text;align=center;fontStyle=1;verticalAlign=middle;spacingLeft=3;spacingRight=3;strokeColor=none;rotatable=0;points=[[0,0.5],[1,0.5]];portConstraint=eastwest;html=1;" vertex="1" parent="WIyWlLk6GJQsqaUBKTNV-1">
          <mxGeometry x="50" y="410" width="80" height="26" as="geometry" />
        </mxCell>
        <mxCell id="0WmDlM7VI-9q1DeEQzwd-5" value="Restaurante" style="swimlane;fontStyle=0;childLayout=stackLayout;horizontal=1;startSize=26;fillColor=none;horizontalStack=0;resizeParent=1;resizeParentMax=0;resizeLast=0;collapsible=1;marginBottom=0;whiteSpace=wrap;html=1;" vertex="1" parent="WIyWlLk6GJQsqaUBKTNV-1">
          <mxGeometry x="70" y="140" width="140" height="52" as="geometry" />
        </mxCell>
        <mxCell id="0WmDlM7VI-9q1DeEQzwd-10" style="edgeStyle=orthogonalEdgeStyle;rounded=0;orthogonalLoop=1;jettySize=auto;html=1;exitX=0.5;exitY=0;exitDx=0;exitDy=0;entryX=0.75;entryY=1;entryDx=0;entryDy=0;" edge="1" parent="WIyWlLk6GJQsqaUBKTNV-1" source="0WmDlM7VI-9q1DeEQzwd-9" target="0WmDlM7VI-9q1DeEQzwd-5">
          <mxGeometry relative="1" as="geometry" />
        </mxCell>
        <mxCell id="0WmDlM7VI-9q1DeEQzwd-9" value="Diario" style="swimlane;fontStyle=0;childLayout=stackLayout;horizontal=1;startSize=26;fillColor=none;horizontalStack=0;resizeParent=1;resizeParentMax=0;resizeLast=0;collapsible=1;marginBottom=0;whiteSpace=wrap;html=1;" vertex="1" parent="WIyWlLk6GJQsqaUBKTNV-1">
          <mxGeometry x="210" y="240" width="140" height="52" as="geometry" />
        </mxCell>
        <mxCell id="0WmDlM7VI-9q1DeEQzwd-11" value="0..n" style="text;strokeColor=none;fillColor=none;align=left;verticalAlign=top;spacingLeft=4;spacingRight=4;overflow=hidden;rotatable=0;points=[[0,0.5],[1,0.5]];portConstraint=eastwest;whiteSpace=wrap;html=1;" vertex="1" parent="WIyWlLk6GJQsqaUBKTNV-1">
          <mxGeometry x="180" y="192" width="100" height="26" as="geometry" />
        </mxCell>
        <mxCell id="0WmDlM7VI-9q1DeEQzwd-15" style="edgeStyle=orthogonalEdgeStyle;rounded=0;orthogonalLoop=1;jettySize=auto;html=1;entryX=0.5;entryY=1;entryDx=0;entryDy=0;" edge="1" parent="WIyWlLk6GJQsqaUBKTNV-1" source="0WmDlM7VI-9q1DeEQzwd-12" target="0WmDlM7VI-9q1DeEQzwd-9">
          <mxGeometry relative="1" as="geometry">
            <Array as="points">
              <mxPoint x="180" y="390" />
              <mxPoint x="280" y="390" />
            </Array>
          </mxGeometry>
        </mxCell>
        <mxCell id="0WmDlM7VI-9q1DeEQzwd-17" style="edgeStyle=orthogonalEdgeStyle;rounded=0;orthogonalLoop=1;jettySize=auto;html=1;entryX=0.5;entryY=0;entryDx=0;entryDy=0;" edge="1" parent="WIyWlLk6GJQsqaUBKTNV-1" source="0WmDlM7VI-9q1DeEQzwd-12" target="0WmDlM7VI-9q1DeEQzwd-13">
          <mxGeometry relative="1" as="geometry" />
        </mxCell>
        <mxCell id="0WmDlM7VI-9q1DeEQzwd-18" style="edgeStyle=orthogonalEdgeStyle;rounded=0;orthogonalLoop=1;jettySize=auto;html=1;exitX=1;exitY=0;exitDx=0;exitDy=0;entryX=0.5;entryY=0;entryDx=0;entryDy=0;" edge="1" parent="WIyWlLk6GJQsqaUBKTNV-1" source="0WmDlM7VI-9q1DeEQzwd-12" target="0WmDlM7VI-9q1DeEQzwd-14">
          <mxGeometry relative="1" as="geometry" />
        </mxCell>
        <mxCell id="0WmDlM7VI-9q1DeEQzwd-25" style="edgeStyle=orthogonalEdgeStyle;rounded=0;orthogonalLoop=1;jettySize=auto;html=1;exitX=0.5;exitY=1;exitDx=0;exitDy=0;entryX=0.5;entryY=0;entryDx=0;entryDy=0;" edge="1" parent="WIyWlLk6GJQsqaUBKTNV-1" source="0WmDlM7VI-9q1DeEQzwd-12" target="0WmDlM7VI-9q1DeEQzwd-22">
          <mxGeometry relative="1" as="geometry" />
        </mxCell>
        <mxCell id="0WmDlM7VI-9q1DeEQzwd-26" style="edgeStyle=orthogonalEdgeStyle;rounded=0;orthogonalLoop=1;jettySize=auto;html=1;exitX=0.75;exitY=1;exitDx=0;exitDy=0;entryX=0.75;entryY=0;entryDx=0;entryDy=0;" edge="1" parent="WIyWlLk6GJQsqaUBKTNV-1" source="0WmDlM7VI-9q1DeEQzwd-12" target="0WmDlM7VI-9q1DeEQzwd-23">
          <mxGeometry relative="1" as="geometry" />
        </mxCell>
        <mxCell id="0WmDlM7VI-9q1DeEQzwd-12" value="VentanaPrincipal" style="swimlane;fontStyle=0;childLayout=stackLayout;horizontal=1;startSize=26;fillColor=none;horizontalStack=0;resizeParent=1;resizeParentMax=0;resizeLast=0;collapsible=1;marginBottom=0;whiteSpace=wrap;html=1;" vertex="1" parent="WIyWlLk6GJQsqaUBKTNV-1">
          <mxGeometry x="110" y="470" width="140" height="52" as="geometry" />
        </mxCell>
        <mxCell id="0WmDlM7VI-9q1DeEQzwd-31" style="edgeStyle=orthogonalEdgeStyle;rounded=0;orthogonalLoop=1;jettySize=auto;html=1;exitX=0.5;exitY=1;exitDx=0;exitDy=0;" edge="1" parent="WIyWlLk6GJQsqaUBKTNV-1" source="0WmDlM7VI-9q1DeEQzwd-13" target="0WmDlM7VI-9q1DeEQzwd-30">
          <mxGeometry relative="1" as="geometry" />
        </mxCell>
        <mxCell id="0WmDlM7VI-9q1DeEQzwd-36" style="edgeStyle=orthogonalEdgeStyle;rounded=0;orthogonalLoop=1;jettySize=auto;html=1;exitX=0;exitY=0.5;exitDx=0;exitDy=0;entryX=1;entryY=0.75;entryDx=0;entryDy=0;" edge="1" parent="WIyWlLk6GJQsqaUBKTNV-1" source="0WmDlM7VI-9q1DeEQzwd-13" target="0WmDlM7VI-9q1DeEQzwd-12">
          <mxGeometry relative="1" as="geometry" />
        </mxCell>
        <mxCell id="0WmDlM7VI-9q1DeEQzwd-13" value="VentanaMapa" style="swimlane;fontStyle=0;childLayout=stackLayout;horizontal=1;startSize=26;fillColor=none;horizontalStack=0;resizeParent=1;resizeParentMax=0;resizeLast=0;collapsible=1;marginBottom=0;whiteSpace=wrap;html=1;" vertex="1" parent="WIyWlLk6GJQsqaUBKTNV-1">
          <mxGeometry x="324" y="500" width="140" height="52" as="geometry" />
        </mxCell>
        <mxCell id="0WmDlM7VI-9q1DeEQzwd-45" style="edgeStyle=orthogonalEdgeStyle;rounded=0;orthogonalLoop=1;jettySize=auto;html=1;exitX=0.25;exitY=0;exitDx=0;exitDy=0;" edge="1" parent="WIyWlLk6GJQsqaUBKTNV-1" source="0WmDlM7VI-9q1DeEQzwd-14" target="0WmDlM7VI-9q1DeEQzwd-12">
          <mxGeometry relative="1" as="geometry">
            <Array as="points">
              <mxPoint x="568" y="460" />
              <mxPoint x="385" y="460" />
              <mxPoint x="385" y="470" />
            </Array>
          </mxGeometry>
        </mxCell>
        <mxCell id="0WmDlM7VI-9q1DeEQzwd-48" style="edgeStyle=orthogonalEdgeStyle;rounded=0;orthogonalLoop=1;jettySize=auto;html=1;exitX=0.25;exitY=1;exitDx=0;exitDy=0;" edge="1" parent="WIyWlLk6GJQsqaUBKTNV-1" source="0WmDlM7VI-9q1DeEQzwd-14" target="0WmDlM7VI-9q1DeEQzwd-33">
          <mxGeometry relative="1" as="geometry" />
        </mxCell>
        <mxCell id="0WmDlM7VI-9q1DeEQzwd-50" style="edgeStyle=orthogonalEdgeStyle;rounded=0;orthogonalLoop=1;jettySize=auto;html=1;exitX=0.5;exitY=1;exitDx=0;exitDy=0;entryX=0.25;entryY=0;entryDx=0;entryDy=0;" edge="1" parent="WIyWlLk6GJQsqaUBKTNV-1" source="0WmDlM7VI-9q1DeEQzwd-14" target="0WmDlM7VI-9q1DeEQzwd-34">
          <mxGeometry relative="1" as="geometry">
            <Array as="points">
              <mxPoint x="580" y="552" />
              <mxPoint x="580" y="631" />
              <mxPoint x="560" y="631" />
            </Array>
          </mxGeometry>
        </mxCell>
        <mxCell id="0WmDlM7VI-9q1DeEQzwd-14" value="VentanaAgregarRestaurante" style="swimlane;fontStyle=0;childLayout=stackLayout;horizontal=1;startSize=26;fillColor=none;horizontalStack=0;resizeParent=1;resizeParentMax=0;resizeLast=0;collapsible=1;marginBottom=0;whiteSpace=wrap;html=1;" vertex="1" parent="WIyWlLk6GJQsqaUBKTNV-1">
          <mxGeometry x="520" y="500" width="190" height="52" as="geometry" />
        </mxCell>
        <mxCell id="0WmDlM7VI-9q1DeEQzwd-16" value="1" style="text;strokeColor=none;fillColor=none;align=left;verticalAlign=top;spacingLeft=4;spacingRight=4;overflow=hidden;rotatable=0;points=[[0,0.5],[1,0.5]];portConstraint=eastwest;whiteSpace=wrap;html=1;" vertex="1" parent="WIyWlLk6GJQsqaUBKTNV-1">
          <mxGeometry x="260" y="354" width="100" height="26" as="geometry" />
        </mxCell>
        <mxCell id="0WmDlM7VI-9q1DeEQzwd-19" value="1" style="text;strokeColor=none;fillColor=none;align=left;verticalAlign=top;spacingLeft=4;spacingRight=4;overflow=hidden;rotatable=0;points=[[0,0.5],[1,0.5]];portConstraint=eastwest;whiteSpace=wrap;html=1;" vertex="1" parent="WIyWlLk6GJQsqaUBKTNV-1">
          <mxGeometry x="260" y="474" width="100" height="26" as="geometry" />
        </mxCell>
        <mxCell id="0WmDlM7VI-9q1DeEQzwd-20" value="1" style="text;strokeColor=none;fillColor=none;align=left;verticalAlign=top;spacingLeft=4;spacingRight=4;overflow=hidden;rotatable=0;points=[[0,0.5],[1,0.5]];portConstraint=eastwest;whiteSpace=wrap;html=1;" vertex="1" parent="WIyWlLk6GJQsqaUBKTNV-1">
          <mxGeometry x="590" y="460" width="100" height="26" as="geometry" />
        </mxCell>
        <mxCell id="0WmDlM7VI-9q1DeEQzwd-41" style="edgeStyle=orthogonalEdgeStyle;rounded=0;orthogonalLoop=1;jettySize=auto;html=1;exitX=0;exitY=0.5;exitDx=0;exitDy=0;entryX=0.5;entryY=1;entryDx=0;entryDy=0;" edge="1" parent="WIyWlLk6GJQsqaUBKTNV-1" source="0WmDlM7VI-9q1DeEQzwd-21" target="0WmDlM7VI-9q1DeEQzwd-5">
          <mxGeometry relative="1" as="geometry" />
        </mxCell>
        <mxCell id="0WmDlM7VI-9q1DeEQzwd-42" style="edgeStyle=orthogonalEdgeStyle;rounded=0;orthogonalLoop=1;jettySize=auto;html=1;exitX=0.25;exitY=0;exitDx=0;exitDy=0;" edge="1" parent="WIyWlLk6GJQsqaUBKTNV-1" source="0WmDlM7VI-9q1DeEQzwd-21">
          <mxGeometry relative="1" as="geometry">
            <mxPoint x="120" y="520" as="targetPoint" />
          </mxGeometry>
        </mxCell>
        <mxCell id="0WmDlM7VI-9q1DeEQzwd-21" value="PanelLista" style="swimlane;fontStyle=0;childLayout=stackLayout;horizontal=1;startSize=26;fillColor=none;horizontalStack=0;resizeParent=1;resizeParentMax=0;resizeLast=0;collapsible=1;marginBottom=0;whiteSpace=wrap;html=1;" vertex="1" parent="WIyWlLk6GJQsqaUBKTNV-1">
          <mxGeometry x="110" y="585" width="100" height="52" as="geometry" />
        </mxCell>
        <mxCell id="0WmDlM7VI-9q1DeEQzwd-22" value="PanelBotones" style="swimlane;fontStyle=0;childLayout=stackLayout;horizontal=1;startSize=26;fillColor=none;horizontalStack=0;resizeParent=1;resizeParentMax=0;resizeLast=0;collapsible=1;marginBottom=0;whiteSpace=wrap;html=1;" vertex="1" parent="WIyWlLk6GJQsqaUBKTNV-1">
          <mxGeometry x="270" y="610" width="100" height="52" as="geometry" />
        </mxCell>
        <mxCell id="0WmDlM7VI-9q1DeEQzwd-23" value="PanelDetallesRestaurante" style="swimlane;fontStyle=0;childLayout=stackLayout;horizontal=1;startSize=26;fillColor=none;horizontalStack=0;resizeParent=1;resizeParentMax=0;resizeLast=0;collapsible=1;marginBottom=0;whiteSpace=wrap;html=1;" vertex="1" parent="WIyWlLk6GJQsqaUBKTNV-1">
          <mxGeometry x="90" y="710" width="180" height="52" as="geometry" />
        </mxCell>
        <mxCell id="0WmDlM7VI-9q1DeEQzwd-27" value="1" style="text;strokeColor=none;fillColor=none;align=left;verticalAlign=top;spacingLeft=4;spacingRight=4;overflow=hidden;rotatable=0;points=[[0,0.5],[1,0.5]];portConstraint=eastwest;whiteSpace=wrap;html=1;" vertex="1" parent="WIyWlLk6GJQsqaUBKTNV-1">
          <mxGeometry x="100" y="532" width="20" height="26" as="geometry" />
        </mxCell>
        <mxCell id="0WmDlM7VI-9q1DeEQzwd-28" value="1" style="text;strokeColor=none;fillColor=none;align=left;verticalAlign=top;spacingLeft=4;spacingRight=4;overflow=hidden;rotatable=0;points=[[0,0.5],[1,0.5]];portConstraint=eastwest;whiteSpace=wrap;html=1;" vertex="1" parent="WIyWlLk6GJQsqaUBKTNV-1">
          <mxGeometry x="160" y="532" width="100" height="26" as="geometry" />
        </mxCell>
        <mxCell id="0WmDlM7VI-9q1DeEQzwd-29" value="1" style="text;strokeColor=none;fillColor=none;align=left;verticalAlign=top;spacingLeft=4;spacingRight=4;overflow=hidden;rotatable=0;points=[[0,0.5],[1,0.5]];portConstraint=eastwest;whiteSpace=wrap;html=1;" vertex="1" parent="WIyWlLk6GJQsqaUBKTNV-1">
          <mxGeometry x="200" y="532" width="100" height="26" as="geometry" />
        </mxCell>
        <mxCell id="0WmDlM7VI-9q1DeEQzwd-39" style="edgeStyle=orthogonalEdgeStyle;rounded=0;orthogonalLoop=1;jettySize=auto;html=1;exitX=0.5;exitY=1;exitDx=0;exitDy=0;entryX=0.25;entryY=1;entryDx=0;entryDy=0;" edge="1" parent="WIyWlLk6GJQsqaUBKTNV-1" source="0WmDlM7VI-9q1DeEQzwd-30" target="0WmDlM7VI-9q1DeEQzwd-5">
          <mxGeometry relative="1" as="geometry">
            <Array as="points">
              <mxPoint x="378" y="782" />
              <mxPoint x="80" y="782" />
              <mxPoint x="80" y="192" />
            </Array>
          </mxGeometry>
        </mxCell>
        <mxCell id="0WmDlM7VI-9q1DeEQzwd-30" value="PanelMapaVizualizar" style="swimlane;fontStyle=0;childLayout=stackLayout;horizontal=1;startSize=26;fillColor=none;horizontalStack=0;resizeParent=1;resizeParentMax=0;resizeLast=0;collapsible=1;marginBottom=0;whiteSpace=wrap;html=1;" vertex="1" parent="WIyWlLk6GJQsqaUBKTNV-1">
          <mxGeometry x="300" y="710" width="155" height="52" as="geometry" />
        </mxCell>
        <mxCell id="0WmDlM7VI-9q1DeEQzwd-32" value="1" style="text;strokeColor=none;fillColor=none;align=left;verticalAlign=top;spacingLeft=4;spacingRight=4;overflow=hidden;rotatable=0;points=[[0,0.5],[1,0.5]];portConstraint=eastwest;whiteSpace=wrap;html=1;" vertex="1" parent="WIyWlLk6GJQsqaUBKTNV-1">
          <mxGeometry x="374" y="572" width="26" height="26" as="geometry" />
        </mxCell>
        <mxCell id="0WmDlM7VI-9q1DeEQzwd-33" value="PanelMapaAgregar" style="swimlane;fontStyle=0;childLayout=stackLayout;horizontal=1;startSize=26;fillColor=none;horizontalStack=0;resizeParent=1;resizeParentMax=0;resizeLast=0;collapsible=1;marginBottom=0;whiteSpace=wrap;html=1;" vertex="1" parent="WIyWlLk6GJQsqaUBKTNV-1">
          <mxGeometry x="400" y="610" width="120" height="52" as="geometry" />
        </mxCell>
        <mxCell id="0WmDlM7VI-9q1DeEQzwd-34" value="PanelBotonesAgregar" style="swimlane;fontStyle=0;childLayout=stackLayout;horizontal=1;startSize=26;fillColor=none;horizontalStack=0;resizeParent=1;resizeParentMax=0;resizeLast=0;collapsible=1;marginBottom=0;whiteSpace=wrap;html=1;" vertex="1" parent="WIyWlLk6GJQsqaUBKTNV-1">
          <mxGeometry x="530" y="710" width="120" height="52" as="geometry" />
        </mxCell>
        <mxCell id="0WmDlM7VI-9q1DeEQzwd-35" value="PanelEditarRestaurante" style="swimlane;fontStyle=0;childLayout=stackLayout;horizontal=1;startSize=26;fillColor=none;horizontalStack=0;resizeParent=1;resizeParentMax=0;resizeLast=0;collapsible=1;marginBottom=0;whiteSpace=wrap;html=1;" vertex="1" parent="WIyWlLk6GJQsqaUBKTNV-1">
          <mxGeometry x="590" y="610" width="130" height="52" as="geometry" />
        </mxCell>
        <mxCell id="0WmDlM7VI-9q1DeEQzwd-37" value="1" style="text;strokeColor=none;fillColor=none;align=left;verticalAlign=top;spacingLeft=4;spacingRight=4;overflow=hidden;rotatable=0;points=[[0,0.5],[1,0.5]];portConstraint=eastwest;whiteSpace=wrap;html=1;" vertex="1" parent="WIyWlLk6GJQsqaUBKTNV-1">
          <mxGeometry x="270" y="513" width="20" height="26" as="geometry" />
        </mxCell>
        <mxCell id="0WmDlM7VI-9q1DeEQzwd-40" value="0..n" style="text;strokeColor=none;fillColor=none;align=left;verticalAlign=top;spacingLeft=4;spacingRight=4;overflow=hidden;rotatable=0;points=[[0,0.5],[1,0.5]];portConstraint=eastwest;whiteSpace=wrap;html=1;" vertex="1" parent="WIyWlLk6GJQsqaUBKTNV-1">
          <mxGeometry x="140" y="310" width="30" height="26" as="geometry" />
        </mxCell>
        <mxCell id="0WmDlM7VI-9q1DeEQzwd-47" value="1" style="text;strokeColor=none;fillColor=none;align=left;verticalAlign=top;spacingLeft=4;spacingRight=4;overflow=hidden;rotatable=0;points=[[0,0.5],[1,0.5]];portConstraint=eastwest;whiteSpace=wrap;html=1;" vertex="1" parent="WIyWlLk6GJQsqaUBKTNV-1">
          <mxGeometry x="270" y="448" width="100" height="26" as="geometry" />
        </mxCell>
        <mxCell id="0WmDlM7VI-9q1DeEQzwd-49" style="edgeStyle=orthogonalEdgeStyle;rounded=0;orthogonalLoop=1;jettySize=auto;html=1;exitX=0.75;exitY=1;exitDx=0;exitDy=0;entryX=0.681;entryY=0.037;entryDx=0;entryDy=0;entryPerimeter=0;" edge="1" parent="WIyWlLk6GJQsqaUBKTNV-1" source="0WmDlM7VI-9q1DeEQzwd-14" target="0WmDlM7VI-9q1DeEQzwd-35">
          <mxGeometry relative="1" as="geometry" />
        </mxCell>
        <mxCell id="0WmDlM7VI-9q1DeEQzwd-53" style="edgeStyle=orthogonalEdgeStyle;rounded=0;orthogonalLoop=1;jettySize=auto;html=1;exitX=0.25;exitY=1;exitDx=0;exitDy=0;entryX=0.394;entryY=0.019;entryDx=0;entryDy=0;entryPerimeter=0;" edge="1" parent="WIyWlLk6GJQsqaUBKTNV-1" source="0WmDlM7VI-9q1DeEQzwd-12" target="0WmDlM7VI-9q1DeEQzwd-21">
          <mxGeometry relative="1" as="geometry" />
        </mxCell>
        <mxCell id="0WmDlM7VI-9q1DeEQzwd-54" value="1" style="text;strokeColor=none;fillColor=none;align=left;verticalAlign=top;spacingLeft=4;spacingRight=4;overflow=hidden;rotatable=0;points=[[0,0.5],[1,0.5]];portConstraint=eastwest;whiteSpace=wrap;html=1;" vertex="1" parent="WIyWlLk6GJQsqaUBKTNV-1">
          <mxGeometry x="130" y="532" width="100" height="26" as="geometry" />
        </mxCell>
        <mxCell id="0WmDlM7VI-9q1DeEQzwd-57" value="1" style="text;strokeColor=none;fillColor=none;align=left;verticalAlign=top;spacingLeft=4;spacingRight=4;overflow=hidden;rotatable=0;points=[[0,0.5],[1,0.5]];portConstraint=eastwest;whiteSpace=wrap;html=1;" vertex="1" parent="WIyWlLk6GJQsqaUBKTNV-1">
          <mxGeometry x="470" y="558" width="26" height="26" as="geometry" />
        </mxCell>
        <mxCell id="0WmDlM7VI-9q1DeEQzwd-58" value="1" style="text;strokeColor=none;fillColor=none;align=left;verticalAlign=top;spacingLeft=4;spacingRight=4;overflow=hidden;rotatable=0;points=[[0,0.5],[1,0.5]];portConstraint=eastwest;whiteSpace=wrap;html=1;" vertex="1" parent="WIyWlLk6GJQsqaUBKTNV-1">
          <mxGeometry x="550" y="598" width="26" height="26" as="geometry" />
        </mxCell>
        <mxCell id="0WmDlM7VI-9q1DeEQzwd-59" value="1" style="text;strokeColor=none;fillColor=none;align=left;verticalAlign=top;spacingLeft=4;spacingRight=4;overflow=hidden;rotatable=0;points=[[0,0.5],[1,0.5]];portConstraint=eastwest;whiteSpace=wrap;html=1;" vertex="1" parent="WIyWlLk6GJQsqaUBKTNV-1">
          <mxGeometry x="642" y="558" width="26" height="26" as="geometry" />
        </mxCell>
        <mxCell id="0WmDlM7VI-9q1DeEQzwd-60" value="0..n" style="text;strokeColor=none;fillColor=none;align=left;verticalAlign=top;spacingLeft=4;spacingRight=4;overflow=hidden;rotatable=0;points=[[0,0.5],[1,0.5]];portConstraint=eastwest;whiteSpace=wrap;html=1;" vertex="1" parent="WIyWlLk6GJQsqaUBKTNV-1">
          <mxGeometry x="50" y="320" width="30" height="26" as="geometry" />
        </mxCell>
      </root>
    </mxGraphModel>
  </diagram>
</mxfile>
